ISO-10303-21;
HEADER;
FILE_DESCRIPTION(('FreeCAD Model'),'2;1');
FILE_NAME('Open CASCADE Shape Model','2026-03-03T15:29:08',(''),(''),
  'Open CASCADE STEP processor 7.8','FreeCAD','Unknown');
FILE_SCHEMA(('AUTOMOTIVE_DESIGN { 1 0 10303 214 1 1 1 1 }'));
ENDSEC;
DATA;
#1 = APPLICATION_PROTOCOL_DEFINITION('international standard',
  'automotive_design',2000,#2);
#2 = APPLICATION_CONTEXT(
  'core data for automotive mechanical design processes');
#3 = SHAPE_DEFINITION_REPRESENTATION(#4,#10);
#4 = PRODUCT_DEFINITION_SHAPE('','',#5);
#5 = PRODUCT_DEFINITION('design','',#6,#9);
#6 = PRODUCT_DEFINITION_FORMATION('','',#7);
#7 = PRODUCT('difference001','difference001','',(#8));
#8 = PRODUCT_CONTEXT('',#2,'mechanical');
#9 = PRODUCT_DEFINITION_CONTEXT('part definition',#2,'design');
#10 = ADVANCED_BREP_SHAPE_REPRESENTATION('',(#11,#15),#873);
#11 = AXIS2_PLACEMENT_3D('',#12,#13,#14);
#12 = CARTESIAN_POINT('',(0.,0.,0.));
#13 = DIRECTION('',(0.,0.,1.));
#14 = DIRECTION('',(1.,0.,-0.));
#15 = MANIFOLD_SOLID_BREP('',#16);
#16 = CLOSED_SHELL('',(#17,#50,#112,#132,#164,#199,#224,#259,#284,#312,
    #624,#649,#674,#699,#724,#750,#770,#795,#820,#837,#849,#861));
#17 = ADVANCED_FACE('',(#18),#45,.T.);
#18 = FACE_BOUND('',#19,.F.);
#19 = EDGE_LOOP('',(#20,#30,#37,#38));
#20 = ORIENTED_EDGE('',*,*,#21,.T.);
#21 = EDGE_CURVE('',#22,#24,#26,.T.);
#22 = VERTEX_POINT('',#23);
#23 = CARTESIAN_POINT('',(20.8486,-5.E-15,0.));
#24 = VERTEX_POINT('',#25);
#25 = CARTESIAN_POINT('',(20.8486,-5.E-15,1.5));
#26 = LINE('',#27,#28);
#27 = CARTESIAN_POINT('',(20.8486,-5.11E-15,0.));
#28 = VECTOR('',#29,1.);
#29 = DIRECTION('',(0.,0.,1.));
#30 = ORIENTED_EDGE('',*,*,#31,.T.);
#31 = EDGE_CURVE('',#24,#24,#32,.T.);
#32 = CIRCLE('',#33,20.8486);
#33 = AXIS2_PLACEMENT_3D('',#34,#35,#36);
#34 = CARTESIAN_POINT('',(0.,0.,1.5));
#35 = DIRECTION('',(0.,0.,1.));
#36 = DIRECTION('',(1.,0.,0.));
#37 = ORIENTED_EDGE('',*,*,#21,.F.);
#38 = ORIENTED_EDGE('',*,*,#39,.F.);
#39 = EDGE_CURVE('',#22,#22,#40,.T.);
#40 = CIRCLE('',#41,20.8486);
#41 = AXIS2_PLACEMENT_3D('',#42,#43,#44);
#42 = CARTESIAN_POINT('',(0.,0.,0.));
#43 = DIRECTION('',(0.,0.,1.));
#44 = DIRECTION('',(1.,0.,0.));
#45 = CYLINDRICAL_SURFACE('',#46,20.8486);
#46 = AXIS2_PLACEMENT_3D('',#47,#48,#49);
#47 = CARTESIAN_POINT('',(0.,0.,0.));
#48 = DIRECTION('',(-0.,-0.,-1.));
#49 = DIRECTION('',(1.,0.,0.));
#50 = ADVANCED_FACE('',(#51,#54),#107,.F.);
#51 = FACE_BOUND('',#52,.F.);
#52 = EDGE_LOOP('',(#53));
#53 = ORIENTED_EDGE('',*,*,#39,.T.);
#54 = FACE_BOUND('',#55,.F.);
#55 = EDGE_LOOP('',(#56,#67,#75,#84,#92,#101));
#56 = ORIENTED_EDGE('',*,*,#57,.T.);
#57 = EDGE_CURVE('',#58,#60,#62,.T.);
#58 = VERTEX_POINT('',#59);
#59 = CARTESIAN_POINT('',(0.673563667214,13.483186269803,0.));
#60 = VERTEX_POINT('',#61);
#61 = CARTESIAN_POINT('',(11.34,7.324916381775,0.));
#62 = CIRCLE('',#63,13.5);
#63 = AXIS2_PLACEMENT_3D('',#64,#65,#66);
#64 = CARTESIAN_POINT('',(0.,0.,0.));
#65 = DIRECTION('',(0.,0.,-1.));
#66 = DIRECTION('',(1.,0.,0.));
#67 = ORIENTED_EDGE('',*,*,#68,.T.);
#68 = EDGE_CURVE('',#60,#69,#71,.T.);
#69 = VERTEX_POINT('',#70);
#70 = CARTESIAN_POINT('',(11.34,-7.324916381775,0.));
#71 = LINE('',#72,#73);
#72 = CARTESIAN_POINT('',(11.34,-3.662458190888,0.));
#73 = VECTOR('',#74,1.);
#74 = DIRECTION('',(0.,-1.,0.));
#75 = ORIENTED_EDGE('',*,*,#76,.T.);
#76 = EDGE_CURVE('',#69,#77,#79,.T.);
#77 = VERTEX_POINT('',#78);
#78 = CARTESIAN_POINT('',(0.673563667214,-13.4831862698,0.));
#79 = CIRCLE('',#80,13.5);
#80 = AXIS2_PLACEMENT_3D('',#81,#82,#83);
#81 = CARTESIAN_POINT('',(0.,0.,0.));
#82 = DIRECTION('',(0.,0.,-1.));
#83 = DIRECTION('',(1.,0.,0.));
#84 = ORIENTED_EDGE('',*,*,#85,.T.);
#85 = EDGE_CURVE('',#77,#86,#88,.T.);
#86 = VERTEX_POINT('',#87);
#87 = CARTESIAN_POINT('',(-12.01356366721,-6.158269888028,0.));
#88 = LINE('',#89,#90);
#89 = CARTESIAN_POINT('',(-8.841781833607,-7.989498983472,1.1E-16));
#90 = VECTOR('',#91,1.);
#91 = DIRECTION('',(-0.866025403784,0.5,0.));
#92 = ORIENTED_EDGE('',*,*,#93,.T.);
#93 = EDGE_CURVE('',#86,#94,#96,.T.);
#94 = VERTEX_POINT('',#95);
#95 = CARTESIAN_POINT('',(-12.01356366721,6.158269888028,0.));
#96 = CIRCLE('',#97,13.5);
#97 = AXIS2_PLACEMENT_3D('',#98,#99,#100);
#98 = CARTESIAN_POINT('',(0.,0.,0.));
#99 = DIRECTION('',(0.,0.,-1.));
#100 = DIRECTION('',(1.,0.,0.));
#101 = ORIENTED_EDGE('',*,*,#102,.T.);
#102 = EDGE_CURVE('',#94,#58,#103,.T.);
#103 = LINE('',#104,#105);
#104 = CARTESIAN_POINT('',(-2.498218166393,11.651957174359,0.));
#105 = VECTOR('',#106,1.);
#106 = DIRECTION('',(0.866025403784,0.5,-0.));
#107 = PLANE('',#108);
#108 = AXIS2_PLACEMENT_3D('',#109,#110,#111);
#109 = CARTESIAN_POINT('',(0.,0.,0.));
#110 = DIRECTION('',(0.,0.,1.));
#111 = DIRECTION('',(1.,0.,0.));
#112 = ADVANCED_FACE('',(#113,#116),#127,.T.);
#113 = FACE_BOUND('',#114,.T.);
#114 = EDGE_LOOP('',(#115));
#115 = ORIENTED_EDGE('',*,*,#31,.T.);
#116 = FACE_BOUND('',#117,.T.);
#117 = EDGE_LOOP('',(#118));
#118 = ORIENTED_EDGE('',*,*,#119,.T.);
#119 = EDGE_CURVE('',#120,#120,#122,.T.);
#120 = VERTEX_POINT('',#121);
#121 = CARTESIAN_POINT('',(18.8486,-5.E-15,1.5));
#122 = CIRCLE('',#123,18.8486);
#123 = AXIS2_PLACEMENT_3D('',#124,#125,#126);
#124 = CARTESIAN_POINT('',(0.,0.,1.5));
#125 = DIRECTION('',(0.,0.,-1.));
#126 = DIRECTION('',(1.,0.,0.));
#127 = PLANE('',#128);
#128 = AXIS2_PLACEMENT_3D('',#129,#130,#131);
#129 = CARTESIAN_POINT('',(0.,0.,1.5));
#130 = DIRECTION('',(0.,0.,1.));
#131 = DIRECTION('',(1.,0.,0.));
#132 = ADVANCED_FACE('',(#133),#159,.F.);
#133 = FACE_BOUND('',#134,.T.);
#134 = EDGE_LOOP('',(#135,#136,#144,#153));
#135 = ORIENTED_EDGE('',*,*,#57,.T.);
#136 = ORIENTED_EDGE('',*,*,#137,.T.);
#137 = EDGE_CURVE('',#60,#138,#140,.T.);
#138 = VERTEX_POINT('',#139);
#139 = CARTESIAN_POINT('',(11.34,7.324916381775,15.));
#140 = LINE('',#141,#142);
#141 = CARTESIAN_POINT('',(11.34,7.324916381775,-1.));
#142 = VECTOR('',#143,1.);
#143 = DIRECTION('',(0.,0.,1.));
#144 = ORIENTED_EDGE('',*,*,#145,.F.);
#145 = EDGE_CURVE('',#146,#138,#148,.T.);
#146 = VERTEX_POINT('',#147);
#147 = CARTESIAN_POINT('',(0.673563667214,13.483186269803,15.));
#148 = CIRCLE('',#149,13.5);
#149 = AXIS2_PLACEMENT_3D('',#150,#151,#152);
#150 = CARTESIAN_POINT('',(0.,0.,15.));
#151 = DIRECTION('',(0.,0.,-1.));
#152 = DIRECTION('',(1.,0.,0.));
#153 = ORIENTED_EDGE('',*,*,#154,.F.);
#154 = EDGE_CURVE('',#58,#146,#155,.T.);
#155 = LINE('',#156,#157);
#156 = CARTESIAN_POINT('',(0.673563667214,13.483186269803,-1.));
#157 = VECTOR('',#158,1.);
#158 = DIRECTION('',(0.,0.,1.));
#159 = CYLINDRICAL_SURFACE('',#160,13.5);
#160 = AXIS2_PLACEMENT_3D('',#161,#162,#163);
#161 = CARTESIAN_POINT('',(0.,0.,-1.));
#162 = DIRECTION('',(-0.,-0.,-1.));
#163 = DIRECTION('',(1.,0.,0.));
#164 = ADVANCED_FACE('',(#165,#183),#194,.T.);
#165 = FACE_BOUND('',#166,.T.);
#166 = EDGE_LOOP('',(#167,#168,#169,#177));
#167 = ORIENTED_EDGE('',*,*,#102,.T.);
#168 = ORIENTED_EDGE('',*,*,#154,.T.);
#169 = ORIENTED_EDGE('',*,*,#170,.F.);
#170 = EDGE_CURVE('',#171,#146,#173,.T.);
#171 = VERTEX_POINT('',#172);
#172 = CARTESIAN_POINT('',(-12.01356366721,6.158269888028,15.));
#173 = LINE('',#174,#175);
#174 = CARTESIAN_POINT('',(-2.498218166393,11.651957174359,15.));
#175 = VECTOR('',#176,1.);
#176 = DIRECTION('',(0.866025403784,0.5,-0.));
#177 = ORIENTED_EDGE('',*,*,#178,.F.);
#178 = EDGE_CURVE('',#94,#171,#179,.T.);
#179 = LINE('',#180,#181);
#180 = CARTESIAN_POINT('',(-12.01356366721,6.158269888028,-1.));
#181 = VECTOR('',#182,1.);
#182 = DIRECTION('',(0.,0.,1.));
#183 = FACE_BOUND('',#184,.T.);
#184 = EDGE_LOOP('',(#185));
#185 = ORIENTED_EDGE('',*,*,#186,.F.);
#186 = EDGE_CURVE('',#187,#187,#189,.T.);
#187 = VERTEX_POINT('',#188);
#188 = CARTESIAN_POINT('',(-5.67,9.820728078916,5.9));
#189 = CIRCLE('',#190,1.6);
#190 = AXIS2_PLACEMENT_3D('',#191,#192,#193);
#191 = CARTESIAN_POINT('',(-5.67,9.820728078916,7.5));
#192 = DIRECTION('',(0.5,-0.866025403784,-1.1E-16));
#193 = DIRECTION('',(-2.2E-16,-2.465190328816E-32,-1.));
#194 = PLANE('',#195);
#195 = AXIS2_PLACEMENT_3D('',#196,#197,#198);
#196 = CARTESIAN_POINT('',(0.673563667214,13.483186269803,-1.));
#197 = DIRECTION('',(0.5,-0.866025403784,0.));
#198 = DIRECTION('',(-0.866025403784,-0.5,0.));
#199 = ADVANCED_FACE('',(#200),#219,.F.);
#200 = FACE_BOUND('',#201,.T.);
#201 = EDGE_LOOP('',(#202,#203,#204,#213));
#202 = ORIENTED_EDGE('',*,*,#93,.T.);
#203 = ORIENTED_EDGE('',*,*,#178,.T.);
#204 = ORIENTED_EDGE('',*,*,#205,.F.);
#205 = EDGE_CURVE('',#206,#171,#208,.T.);
#206 = VERTEX_POINT('',#207);
#207 = CARTESIAN_POINT('',(-12.01356366721,-6.158269888028,15.));
#208 = CIRCLE('',#209,13.5);
#209 = AXIS2_PLACEMENT_3D('',#210,#211,#212);
#210 = CARTESIAN_POINT('',(0.,0.,15.));
#211 = DIRECTION('',(0.,0.,-1.));
#212 = DIRECTION('',(1.,0.,0.));
#213 = ORIENTED_EDGE('',*,*,#214,.F.);
#214 = EDGE_CURVE('',#86,#206,#215,.T.);
#215 = LINE('',#216,#217);
#216 = CARTESIAN_POINT('',(-12.01356366721,-6.158269888028,-1.));
#217 = VECTOR('',#218,1.);
#218 = DIRECTION('',(0.,0.,1.));
#219 = CYLINDRICAL_SURFACE('',#220,13.5);
#220 = AXIS2_PLACEMENT_3D('',#221,#222,#223);
#221 = CARTESIAN_POINT('',(0.,0.,-1.));
#222 = DIRECTION('',(-0.,-0.,-1.));
#223 = DIRECTION('',(1.,0.,0.));
#224 = ADVANCED_FACE('',(#225,#243),#254,.T.);
#225 = FACE_BOUND('',#226,.T.);
#226 = EDGE_LOOP('',(#227,#228,#229,#237));
#227 = ORIENTED_EDGE('',*,*,#85,.T.);
#228 = ORIENTED_EDGE('',*,*,#214,.T.);
#229 = ORIENTED_EDGE('',*,*,#230,.F.);
#230 = EDGE_CURVE('',#231,#206,#233,.T.);
#231 = VERTEX_POINT('',#232);
#232 = CARTESIAN_POINT('',(0.673563667214,-13.4831862698,15.));
#233 = LINE('',#234,#235);
#234 = CARTESIAN_POINT('',(-8.841781833607,-7.989498983472,15.));
#235 = VECTOR('',#236,1.);
#236 = DIRECTION('',(-0.866025403784,0.5,0.));
#237 = ORIENTED_EDGE('',*,*,#238,.F.);
#238 = EDGE_CURVE('',#77,#231,#239,.T.);
#239 = LINE('',#240,#241);
#240 = CARTESIAN_POINT('',(0.673563667214,-13.4831862698,-1.));
#241 = VECTOR('',#242,1.);
#242 = DIRECTION('',(0.,0.,1.));
#243 = FACE_BOUND('',#244,.T.);
#244 = EDGE_LOOP('',(#245));
#245 = ORIENTED_EDGE('',*,*,#246,.F.);
#246 = EDGE_CURVE('',#247,#247,#249,.T.);
#247 = VERTEX_POINT('',#248);
#248 = CARTESIAN_POINT('',(-5.67,-9.820728078916,5.9));
#249 = CIRCLE('',#250,1.6);
#250 = AXIS2_PLACEMENT_3D('',#251,#252,#253);
#251 = CARTESIAN_POINT('',(-5.67,-9.820728078916,7.5));
#252 = DIRECTION('',(0.5,0.866025403784,0.));
#253 = DIRECTION('',(0.,0.,-1.));
#254 = PLANE('',#255);
#255 = AXIS2_PLACEMENT_3D('',#256,#257,#258);
#256 = CARTESIAN_POINT('',(-12.01356366721,-6.158269888028,-1.));
#257 = DIRECTION('',(0.5,0.866025403784,0.));
#258 = DIRECTION('',(0.866025403784,-0.5,0.));
#259 = ADVANCED_FACE('',(#260),#279,.F.);
#260 = FACE_BOUND('',#261,.T.);
#261 = EDGE_LOOP('',(#262,#263,#264,#273));
#262 = ORIENTED_EDGE('',*,*,#76,.T.);
#263 = ORIENTED_EDGE('',*,*,#238,.T.);
#264 = ORIENTED_EDGE('',*,*,#265,.F.);
#265 = EDGE_CURVE('',#266,#231,#268,.T.);
#266 = VERTEX_POINT('',#267);
#267 = CARTESIAN_POINT('',(11.34,-7.324916381775,15.));
#268 = CIRCLE('',#269,13.5);
#269 = AXIS2_PLACEMENT_3D('',#270,#271,#272);
#270 = CARTESIAN_POINT('',(0.,0.,15.));
#271 = DIRECTION('',(0.,0.,-1.));
#272 = DIRECTION('',(1.,0.,0.));
#273 = ORIENTED_EDGE('',*,*,#274,.F.);
#274 = EDGE_CURVE('',#69,#266,#275,.T.);
#275 = LINE('',#276,#277);
#276 = CARTESIAN_POINT('',(11.34,-7.324916381775,-1.));
#277 = VECTOR('',#278,1.);
#278 = DIRECTION('',(0.,0.,1.));
#279 = CYLINDRICAL_SURFACE('',#280,13.5);
#280 = AXIS2_PLACEMENT_3D('',#281,#282,#283);
#281 = CARTESIAN_POINT('',(0.,0.,-1.));
#282 = DIRECTION('',(-0.,-0.,-1.));
#283 = DIRECTION('',(1.,0.,0.));
#284 = ADVANCED_FACE('',(#285,#296),#307,.T.);
#285 = FACE_BOUND('',#286,.T.);
#286 = EDGE_LOOP('',(#287,#288,#289,#295));
#287 = ORIENTED_EDGE('',*,*,#68,.T.);
#288 = ORIENTED_EDGE('',*,*,#274,.T.);
#289 = ORIENTED_EDGE('',*,*,#290,.F.);
#290 = EDGE_CURVE('',#138,#266,#291,.T.);
#291 = LINE('',#292,#293);
#292 = CARTESIAN_POINT('',(11.34,-3.662458190888,15.));
#293 = VECTOR('',#294,1.);
#294 = DIRECTION('',(0.,-1.,0.));
#295 = ORIENTED_EDGE('',*,*,#137,.F.);
#296 = FACE_BOUND('',#297,.T.);
#297 = EDGE_LOOP('',(#298));
#298 = ORIENTED_EDGE('',*,*,#299,.F.);
#299 = EDGE_CURVE('',#300,#300,#302,.T.);
#300 = VERTEX_POINT('',#301);
#301 = CARTESIAN_POINT('',(11.34,0.,5.9));
#302 = CIRCLE('',#303,1.6);
#303 = AXIS2_PLACEMENT_3D('',#304,#305,#306);
#304 = CARTESIAN_POINT('',(11.34,0.,7.5));
#305 = DIRECTION('',(-1.,0.,2.2E-16));
#306 = DIRECTION('',(-2.2E-16,0.,-1.));
#307 = PLANE('',#308);
#308 = AXIS2_PLACEMENT_3D('',#309,#310,#311);
#309 = CARTESIAN_POINT('',(11.34,-7.324916381775,-1.));
#310 = DIRECTION('',(-1.,0.,0.));
#311 = DIRECTION('',(0.,1.,0.));
#312 = ADVANCED_FACE('',(#313,#433,#526),#619,.T.);
#313 = FACE_BOUND('',#314,.F.);
#314 = EDGE_LOOP('',(#315,#323,#324,#325,#372,#380,#387,#388));
#315 = ORIENTED_EDGE('',*,*,#316,.F.);
#316 = EDGE_CURVE('',#120,#317,#319,.T.);
#317 = VERTEX_POINT('',#318);
#318 = CARTESIAN_POINT('',(18.8486,-3.E-15,2.9));
#319 = LINE('',#320,#321);
#320 = CARTESIAN_POINT('',(18.8486,-4.62E-15,0.));
#321 = VECTOR('',#322,1.);
#322 = DIRECTION('',(0.,0.,1.));
#323 = ORIENTED_EDGE('',*,*,#119,.T.);
#324 = ORIENTED_EDGE('',*,*,#316,.T.);
#325 = ORIENTED_EDGE('',*,*,#326,.T.);
#326 = EDGE_CURVE('',#317,#327,#329,.T.);
#327 = VERTEX_POINT('',#328);
#328 = CARTESIAN_POINT('',(18.8486,-5.E-15,12.1));
#329 = B_SPLINE_CURVE_WITH_KNOTS('',6,(#330,#331,#332,#333,#334,#335,
    #336,#337,#338,#339,#340,#341,#342,#343,#344,#345,#346,#347,#348,
    #349,#350,#351,#352,#353,#354,#355,#356,#357,#358,#359,#360,#361,
    #362,#363,#364,#365,#366,#367,#368,#369,#370,#371),.UNSPECIFIED.,.F.
  ,.F.,(7,5,5,5,5,5,5,5,7),(0.,8.637126635961E-02,0.223818032725,
    0.339318009263,0.500000000008,0.660681990753,0.776181967291,
    0.913628733657,1.),.UNSPECIFIED.);
#330 = CARTESIAN_POINT('',(18.8486,-5.6E-16,2.9));
#331 = CARTESIAN_POINT('',(18.8486,0.253381636317,2.9));
#332 = CARTESIAN_POINT('',(18.844512580137,0.506295308491,2.916748459941
    ));
#333 = CARTESIAN_POINT('',(18.83636584898,0.756333396843,2.950129077005)
  );
#334 = CARTESIAN_POINT('',(18.824440965875,1.001120950312,2.999423619444
    ));
#335 = CARTESIAN_POINT('',(18.80925973845,1.238418245471,3.063325286118)
  );
#336 = CARTESIAN_POINT('',(18.763199995739,1.828732666733,3.261838442787
    ));
#337 = CARTESIAN_POINT('',(18.728376734595,2.166826814541,3.415792241637
    ));
#338 = CARTESIAN_POINT('',(18.689226481364,2.478775612603,3.596113539561
    ));
#339 = CARTESIAN_POINT('',(18.647924739031,2.763754183422,3.797773192232
    ));
#340 = CARTESIAN_POINT('',(18.606306510008,3.021608553607,4.016226166691
    ));
#341 = CARTESIAN_POINT('',(18.531800629449,3.446875750774,4.441493363858
    ));
#342 = CARTESIAN_POINT('',(18.498476002151,3.622748099203,4.645188189574
    ));
#343 = CARTESIAN_POINT('',(18.466617897989,3.780867103951,4.856588549523
    ));
#344 = CARTESIAN_POINT('',(18.436820617361,3.921806566368,5.074286076202
    ));
#345 = CARTESIAN_POINT('',(18.409538938169,4.046093060341,5.297177963607
    ));
#346 = CARTESIAN_POINT('',(18.351160028002,4.304462439223,5.840451194418
    ));
#347 = CARTESIAN_POINT('',(18.322743888846,4.423364159578,6.164871368753
    ));
#348 = CARTESIAN_POINT('',(18.300852776746,4.511847631883,6.494993648329
    ));
#349 = CARTESIAN_POINT('',(18.286065869449,4.570605706034,6.82873986032)
  );
#350 = CARTESIAN_POINT('',(18.278668495271,4.6,7.164325688311));
#351 = CARTESIAN_POINT('',(18.278668495271,4.6,7.835674311689));
#352 = CARTESIAN_POINT('',(18.286065869449,4.570605706034,8.171260139679
    ));
#353 = CARTESIAN_POINT('',(18.300852776746,4.511847631883,8.505006351671
    ));
#354 = CARTESIAN_POINT('',(18.322743888846,4.423364159578,8.835128631246
    ));
#355 = CARTESIAN_POINT('',(18.351160028002,4.304462439223,9.159548805583
    ));
#356 = CARTESIAN_POINT('',(18.409538938169,4.046093060341,9.702822036393
    ));
#357 = CARTESIAN_POINT('',(18.436820617361,3.921806566368,9.925713923797
    ));
#358 = CARTESIAN_POINT('',(18.466617897989,3.780867103951,
    10.143411450477));
#359 = CARTESIAN_POINT('',(18.498476002151,3.622748099203,
    10.354811810426));
#360 = CARTESIAN_POINT('',(18.531800629449,3.446875750774,
    10.558506636142));
#361 = CARTESIAN_POINT('',(18.606306510008,3.021608553607,
    10.983773833309));
#362 = CARTESIAN_POINT('',(18.647924739031,2.763754183422,
    11.202226807768));
#363 = CARTESIAN_POINT('',(18.689226481364,2.478775612603,
    11.403886460439));
#364 = CARTESIAN_POINT('',(18.728376734595,2.166826814542,
    11.584207758363));
#365 = CARTESIAN_POINT('',(18.763199995739,1.828732666733,
    11.738161557213));
#366 = CARTESIAN_POINT('',(18.809259738446,1.238418245514,
    11.936674713868));
#367 = CARTESIAN_POINT('',(18.824440965877,1.0011209503,12.000576380566)
  );
#368 = CARTESIAN_POINT('',(18.836365848982,0.756333396798,
    12.049870923003));
#369 = CARTESIAN_POINT('',(18.844512580136,0.506295308479,
    12.083251540053));
#370 = CARTESIAN_POINT('',(18.8486,0.253381636363,12.1));
#371 = CARTESIAN_POINT('',(18.8486,8.5E-16,12.1));
#372 = ORIENTED_EDGE('',*,*,#373,.T.);
#373 = EDGE_CURVE('',#327,#374,#376,.T.);
#374 = VERTEX_POINT('',#375);
#375 = CARTESIAN_POINT('',(18.8486,-5.E-15,13.5));
#376 = LINE('',#377,#378);
#377 = CARTESIAN_POINT('',(18.8486,-4.62E-15,0.));
#378 = VECTOR('',#379,1.);
#379 = DIRECTION('',(0.,0.,1.));
#380 = ORIENTED_EDGE('',*,*,#381,.F.);
#381 = EDGE_CURVE('',#374,#374,#382,.T.);
#382 = CIRCLE('',#383,18.8486);
#383 = AXIS2_PLACEMENT_3D('',#384,#385,#386);
#384 = CARTESIAN_POINT('',(0.,0.,13.5));
#385 = DIRECTION('',(0.,0.,-1.));
#386 = DIRECTION('',(1.,0.,0.));
#387 = ORIENTED_EDGE('',*,*,#373,.F.);
#388 = ORIENTED_EDGE('',*,*,#389,.T.);
#389 = EDGE_CURVE('',#327,#317,#390,.T.);
#390 = B_SPLINE_CURVE_WITH_KNOTS('',6,(#391,#392,#393,#394,#395,#396,
    #397,#398,#399,#400,#401,#402,#403,#404,#405,#406,#407,#408,#409,
    #410,#411,#412,#413,#414,#415,#416,#417,#418,#419,#420,#421,#422,
    #423,#424,#425,#426,#427,#428,#429,#430,#431,#432),.UNSPECIFIED.,.F.
  ,.F.,(7,5,5,5,5,5,5,5,7),(0.,8.637584283522E-02,0.223829891993,
    0.381830903277,0.500004013898,0.660684712327,0.776183767518,
    0.913629428351,1.),.UNSPECIFIED.);
#391 = CARTESIAN_POINT('',(18.8486,-1.78E-15,12.1));
#392 = CARTESIAN_POINT('',(18.8486,-0.253381636362,12.1));
#393 = CARTESIAN_POINT('',(18.844512580136,-0.506295308479,
    12.083251540053));
#394 = CARTESIAN_POINT('',(18.836365848982,-0.756333396798,
    12.049870923003));
#395 = CARTESIAN_POINT('',(18.824440965877,-1.0011209503,12.000576380566
    ));
#396 = CARTESIAN_POINT('',(18.809259738446,-1.238418245514,
    11.936674713868));
#397 = CARTESIAN_POINT('',(18.763199995739,-1.828732666733,
    11.738161557213));
#398 = CARTESIAN_POINT('',(18.728376734595,-2.166826814541,
    11.584207758364));
#399 = CARTESIAN_POINT('',(18.689226481364,-2.478775612603,
    11.403886460438));
#400 = CARTESIAN_POINT('',(18.647924739031,-2.763754183422,
    11.202226807769));
#401 = CARTESIAN_POINT('',(18.606306510008,-3.021608553607,
    10.983773833309));
#402 = CARTESIAN_POINT('',(18.519284345347,-3.518316622541,
    10.487065764375));
#403 = CARTESIAN_POINT('',(18.474044909182,-3.749705578943,
    10.203617578801));
#404 = CARTESIAN_POINT('',(18.432074700399,-3.948276178615,
    9.906951588469));
#405 = CARTESIAN_POINT('',(18.394739442289,-4.115465820473,
    9.600342708014));
#406 = CARTESIAN_POINT('',(18.362961698402,-4.252480363974,
    9.286153130607));
#407 = CARTESIAN_POINT('',(18.318247662434,-4.440536646877,
    8.726934096113));
#408 = CARTESIAN_POINT('',(18.302587158061,-4.504518982074,
    8.484510501707));
#409 = CARTESIAN_POINT('',(18.290670350072,-4.55230748557,8.23984675142)
  );
#410 = CARTESIAN_POINT('',(18.282669838257,-4.584101085004,
    7.993726532306));
#411 = CARTESIAN_POINT('',(18.278668495271,-4.6,7.746872698186));
#412 = CARTESIAN_POINT('',(18.278668495271,-4.6,7.164325688311));
#413 = CARTESIAN_POINT('',(18.286065869449,-4.570605706034,
    6.828739860321));
#414 = CARTESIAN_POINT('',(18.300852776746,-4.511847631883,
    6.494993648329));
#415 = CARTESIAN_POINT('',(18.322743888846,-4.423364159578,
    6.164871368753));
#416 = CARTESIAN_POINT('',(18.351160028002,-4.304462439223,
    5.840451194417));
#417 = CARTESIAN_POINT('',(18.409538939772,-4.046093053246,5.29717794869
    ));
#418 = CARTESIAN_POINT('',(18.436820614303,-3.921806581805,
    5.074286098813));
#419 = CARTESIAN_POINT('',(18.466617898294,-3.780867101258,4.85658855046
    ));
#420 = CARTESIAN_POINT('',(18.498476005354,-3.622748082493,
    4.645188167401));
#421 = CARTESIAN_POINT('',(18.531800627191,-3.446875763661,
    4.441493376745));
#422 = CARTESIAN_POINT('',(18.606306510009,-3.021608553596,4.01622616668
    ));
#423 = CARTESIAN_POINT('',(18.647924739031,-2.763754183424,
    3.797773192238));
#424 = CARTESIAN_POINT('',(18.689226481362,-2.478775612616,
    3.596113539569));
#425 = CARTESIAN_POINT('',(18.728376734595,-2.166826814546,
    3.415792241635));
#426 = CARTESIAN_POINT('',(18.76319999574,-1.828732666719,3.261838442782
    ));
#427 = CARTESIAN_POINT('',(18.80925973845,-1.238418245471,3.063325286118
    ));
#428 = CARTESIAN_POINT('',(18.824440965875,-1.001120950312,
    2.999423619444));
#429 = CARTESIAN_POINT('',(18.83636584898,-0.756333396843,2.950129077005
    ));
#430 = CARTESIAN_POINT('',(18.844512580137,-0.50629530849,2.916748459941
    ));
#431 = CARTESIAN_POINT('',(18.8486,-0.253381636317,2.9));
#432 = CARTESIAN_POINT('',(18.8486,-2.66E-15,2.9));
#433 = FACE_BOUND('',#434,.F.);
#434 = EDGE_LOOP('',(#435));
#435 = ORIENTED_EDGE('',*,*,#436,.T.);
#436 = EDGE_CURVE('',#437,#437,#439,.T.);
#437 = VERTEX_POINT('',#438);
#438 = CARTESIAN_POINT('',(-9.4243,16.323366425771,2.9));
#439 = B_SPLINE_CURVE_WITH_KNOTS('',8,(#440,#441,#442,#443,#444,#445,
    #446,#447,#448,#449,#450,#451,#452,#453,#454,#455,#456,#457,#458,
    #459,#460,#461,#462,#463,#464,#465,#466,#467,#468,#469,#470,#471,
    #472,#473,#474,#475,#476,#477,#478,#479,#480,#481,#482,#483,#484,
    #485,#486,#487,#488,#489,#490,#491,#492,#493,#494,#495,#496,#497,
    #498,#499,#500,#501,#502,#503,#504,#505,#506,#507,#508,#509,#510,
    #511,#512,#513,#514,#515,#516,#517,#518,#519,#520,#521,#522,#523,
    #524,#525),.UNSPECIFIED.,.T.,.F.,(9,7,7,7,7,7,7,7,7,7,7,7,9),(0.,
    4.295993583228E-02,0.111324155916,0.168772334196,0.248693450383,
    0.386181158397,0.496390855118,0.641643238616,0.746966539137,
    0.828282378354,0.886733098914,0.956290359793,1.),.UNSPECIFIED.);
#440 = CARTESIAN_POINT('',(-9.4243,16.323366425771,2.9));
#441 = CARTESIAN_POINT('',(-9.588876200428,16.228348312152,2.9));
#442 = CARTESIAN_POINT('',(-9.752140447943,16.131559219588,
    2.908972389254));
#443 = CARTESIAN_POINT('',(-9.91335309772,16.033437773996,2.926875631042
    ));
#444 = CARTESIAN_POINT('',(-10.07180768005,15.93446606146,2.953539203871
    ));
#445 = CARTESIAN_POINT('',(-10.22683975222,15.835162983184,
    2.988665032859));
#446 = CARTESIAN_POINT('',(-10.37783410368,15.736074976939,
    3.031828183521));
#447 = CARTESIAN_POINT('',(-10.52423031446,15.637764105007,
    3.082476817969));
#448 = CARTESIAN_POINT('',(-10.89037837468,15.386479516601,
    3.231361685455));
#449 = CARTESIAN_POINT('',(-11.10215019674,15.235672892418,
    3.339959869683));
#450 = CARTESIAN_POINT('',(-11.30070275934,15.089365887205,
    3.463697655311));
#451 = CARTESIAN_POINT('',(-11.4860603244,14.948447504203,3.600686044174
    ));
#452 = CARTESIAN_POINT('',(-11.65837298271,14.813687586881,
    3.749157563563));
#453 = CARTESIAN_POINT('',(-11.81788555993,14.685727757296,
    3.907450738933));
#454 = CARTESIAN_POINT('',(-11.96491323533,14.565079204678,
    4.073996826617));
#455 = CARTESIAN_POINT('',(-12.21319268478,14.357211010447,
    4.392947234194));
#456 = CARTESIAN_POINT('',(-12.31825212289,14.267522709098,
    4.543680422803));
#457 = CARTESIAN_POINT('',(-12.41531264435,14.183200896093,
    4.698863862352));
#458 = CARTESIAN_POINT('',(-12.50466858467,14.104349777182,
    4.857937943023));
#459 = CARTESIAN_POINT('',(-12.5865943617,14.031046007349,5.020418244031
    ));
#460 = CARTESIAN_POINT('',(-12.66134067924,13.963345410188,
    5.185885822447));
#461 = CARTESIAN_POINT('',(-12.72913073055,13.901289697288,
    5.353977502032));
#462 = CARTESIAN_POINT('',(-12.8750544775,13.766482962068,5.761432436328
    ));
#463 = CARTESIAN_POINT('',(-12.94686312807,13.699042205537,6.00295932237
    ));
#464 = CARTESIAN_POINT('',(-13.00606561485,13.642714592209,
    6.248012878494));
#465 = CARTESIAN_POINT('',(-13.05304587397,13.597582839834,
    6.495770205275));
#466 = CARTESIAN_POINT('',(-13.08809170262,13.563699666685,
    6.745500409037));
#467 = CARTESIAN_POINT('',(-13.11139529171,13.541096689764,
    6.996535934448));
#468 = CARTESIAN_POINT('',(-13.12305110504,13.529791264259,
    7.248244266233));
#469 = CARTESIAN_POINT('',(-13.12305110504,13.529791264259,
    7.933093536052));
#470 = CARTESIAN_POINT('',(-13.0885567861,13.563248337689,8.365412157911
    ));
#471 = CARTESIAN_POINT('',(-13.0197859747,13.629952673986,8.794233722739
    ));
#472 = CARTESIAN_POINT('',(-12.9158523231,13.729804827729,9.216680904951
    ));
#473 = CARTESIAN_POINT('',(-12.77495759275,13.862670268877,
    9.629214266469));
#474 = CARTESIAN_POINT('',(-12.59442178821,14.02816022013,
    10.027259514357));
#475 = CARTESIAN_POINT('',(-12.37073613233,14.225310154261,
    10.404665709934));
#476 = CARTESIAN_POINT('',(-11.88266149315,14.633943225262,11.0316672819
    ));
#477 = CARTESIAN_POINT('',(-11.62996025067,14.839169214999,
    11.298435791417));
#478 = CARTESIAN_POINT('',(-11.34101122763,15.065089849147,
    11.541862982535));
#479 = CARTESIAN_POINT('',(-11.01644613838,15.307297480075,
    11.751980246589));
#480 = CARTESIAN_POINT('',(-10.65827206969,15.560201569118,
    11.919970383867));
#481 = CARTESIAN_POINT('',(-10.26992190762,15.817718984057,
    12.038160577121));
#482 = CARTESIAN_POINT('',(-9.85636217456,16.073915212982,12.1));
#483 = CARTESIAN_POINT('',(-8.854857722764,16.652134077821,12.1));
#484 = CARTESIAN_POINT('',(-8.298273179191,16.943207480968,
    11.992584015624));
#485 = CARTESIAN_POINT('',(-7.770061844541,17.192461772087,
    11.794887426046));
#486 = CARTESIAN_POINT('',(-7.282840795014,17.400888370169,
    11.523127801044));
#487 = CARTESIAN_POINT('',(-6.846694550616,17.571759272533,
    11.193523561683));
#488 = CARTESIAN_POINT('',(-6.46866039646,17.709478686909,
    10.822470360726));
#489 = CARTESIAN_POINT('',(-6.151803971035,17.818479314091,
    10.426624033639));
#490 = CARTESIAN_POINT('',(-5.708556468111,17.964425371299,
    9.730120583397));
#491 = CARTESIAN_POINT('',(-5.549651193721,18.014291211266,
    9.426767271558));
#492 = CARTESIAN_POINT('',(-5.417834622837,18.054080208799,
    9.115386773835));
#493 = CARTESIAN_POINT('',(-5.312774010728,18.084871028528,
    8.798036120039));
#494 = CARTESIAN_POINT('',(-5.234173425637,18.107451796678,
    8.476413012047));
#495 = CARTESIAN_POINT('',(-5.181819478802,18.122340273714,
    8.151983186099));
#496 = CARTESIAN_POINT('',(-5.155617390227,18.129791264259,
    7.826083393541));
#497 = CARTESIAN_POINT('',(-5.155617390227,18.129791264259,7.24824426628
    ));
#498 = CARTESIAN_POINT('',(-5.171236082573,18.125349746569,
    6.996535934421));
#499 = CARTESIAN_POINT('',(-5.202462629348,18.116469734873,
    6.745500408992));
#500 = CARTESIAN_POINT('',(-5.249329232383,18.103060743538,
    6.495770205277));
#501 = CARTESIAN_POINT('',(-5.311904605994,18.084940521862,
    6.248012878539));
#502 = CARTESIAN_POINT('',(-5.390286993455,18.061833471008,
    6.002959322395));
#503 = CARTESIAN_POINT('',(-5.484596727186,18.033365733652,
    5.761432436285));
#504 = CARTESIAN_POINT('',(-5.674304657942,17.974395429396,
    5.353977502033));
#505 = CARTESIAN_POINT('',(-5.76194150742,17.946715379285,5.185885822447
    ));
#506 = CARTESIAN_POINT('',(-5.85794510318,17.915833468042,5.020418244031
    ));
#507 = CARTESIAN_POINT('',(-5.962390918565,17.881535548822,
    4.857937943023));
#508 = CARTESIAN_POINT('',(-6.075355960817,17.843576593984,
    4.698863862352));
#509 = CARTESIAN_POINT('',(-6.196911053703,17.801680623198,
    4.543680422803));
#510 = CARTESIAN_POINT('',(-6.32711312015,17.755540631557,4.392947234194
    ));
#511 = CARTESIAN_POINT('',(-6.631271981684,17.644458418224,
    4.073996826654));
#512 = CARTESIAN_POINT('',(-6.809270530899,17.577452992575,3.90745073894
    ));
#513 = CARTESIAN_POINT('',(-6.999843282628,17.503290963258,
    3.749157563541));
#514 = CARTESIAN_POINT('',(-7.202705123612,17.421443782421,3.60068604415
    ));
#515 = CARTESIAN_POINT('',(-7.417422805667,17.331378613802,
    3.463697655304));
#516 = CARTESIAN_POINT('',(-7.643404670196,17.232580553225,
    3.339959869697));
#517 = CARTESIAN_POINT('',(-7.879892948799,17.124584087624,
    3.231361685471));
#518 = CARTESIAN_POINT('',(-8.280585816061,16.933132860124,3.08247681798
    ));
#519 = CARTESIAN_POINT('',(-8.438923634032,16.855505458528,
    3.031828183522));
#520 = CARTESIAN_POINT('',(-8.600233540407,16.774284517445,
    2.988665032853));
#521 = CARTESIAN_POINT('',(-8.763748564967,16.689674343671,
    2.953539203866));
#522 = CARTESIAN_POINT('',(-8.928687873433,16.6019345063,2.926875631042)
  );
#523 = CARTESIAN_POINT('',(-9.094269862833,16.511380978992,
    2.908972389257));
#524 = CARTESIAN_POINT('',(-9.259723799543,16.418384539407,2.9));
#525 = CARTESIAN_POINT('',(-9.4243,16.323366425771,2.9));
#526 = FACE_BOUND('',#527,.F.);
#527 = EDGE_LOOP('',(#528));
#528 = ORIENTED_EDGE('',*,*,#529,.T.);
#529 = EDGE_CURVE('',#530,#530,#532,.T.);
#530 = VERTEX_POINT('',#531);
#531 = CARTESIAN_POINT('',(-9.4243,-16.32336642577,2.9));
#532 = B_SPLINE_CURVE_WITH_KNOTS('',8,(#533,#534,#535,#536,#537,#538,
    #539,#540,#541,#542,#543,#544,#545,#546,#547,#548,#549,#550,#551,
    #552,#553,#554,#555,#556,#557,#558,#559,#560,#561,#562,#563,#564,
    #565,#566,#567,#568,#569,#570,#571,#572,#573,#574,#575,#576,#577,
    #578,#579,#580,#581,#582,#583,#584,#585,#586,#587,#588,#589,#590,
    #591,#592,#593,#594,#595,#596,#597,#598,#599,#600,#601,#602,#603,
    #604,#605,#606,#607,#608,#609,#610,#611,#612,#613,#614,#615,#616,
    #617,#618),.UNSPECIFIED.,.T.,.F.,(9,7,7,7,7,7,7,7,7,7,7,7,9),(0.,
    4.295993617567E-02,0.111324156838,0.168772335624,0.2486934525,
    0.386181161723,0.496390859415,0.641643244192,0.74696654413,
    0.828282381742,0.886733101149,0.956290360655,1.),.UNSPECIFIED.);
#533 = CARTESIAN_POINT('',(-9.4243,-16.32336642577,2.9));
#534 = CARTESIAN_POINT('',(-9.259723799543,-16.4183845394,2.9));
#535 = CARTESIAN_POINT('',(-9.094269862833,-16.51138097899,
    2.908972389257));
#536 = CARTESIAN_POINT('',(-8.928687873433,-16.6019345063,2.926875631042
    ));
#537 = CARTESIAN_POINT('',(-8.763748564967,-16.68967434367,
    2.953539203866));
#538 = CARTESIAN_POINT('',(-8.600233540407,-16.77428451744,
    2.988665032853));
#539 = CARTESIAN_POINT('',(-8.438923634032,-16.85550545852,
    3.031828183522));
#540 = CARTESIAN_POINT('',(-8.280585816061,-16.93313286012,3.08247681798
    ));
#541 = CARTESIAN_POINT('',(-7.879892948773,-17.12458408763,
    3.231361685481));
#542 = CARTESIAN_POINT('',(-7.643404670186,-17.23258055322,
    3.339959869705));
#543 = CARTESIAN_POINT('',(-7.417422805679,-17.33137861379,
    3.463697655301));
#544 = CARTESIAN_POINT('',(-7.202705123634,-17.42144378241,
    3.600686044135));
#545 = CARTESIAN_POINT('',(-6.99984328264,-17.50329096325,3.749157563529
    ));
#546 = CARTESIAN_POINT('',(-6.809270530891,-17.57745299257,
    3.907450738943));
#547 = CARTESIAN_POINT('',(-6.631271981663,-17.64445841823,
    4.073996826675));
#548 = CARTESIAN_POINT('',(-6.32711312015,-17.75554063155,4.392947234194
    ));
#549 = CARTESIAN_POINT('',(-6.196911053703,-17.80168062319,
    4.543680422803));
#550 = CARTESIAN_POINT('',(-6.075355960817,-17.84357659398,
    4.698863862352));
#551 = CARTESIAN_POINT('',(-5.962390918565,-17.88153554882,
    4.857937943023));
#552 = CARTESIAN_POINT('',(-5.85794510318,-17.91583346804,5.020418244031
    ));
#553 = CARTESIAN_POINT('',(-5.76194150742,-17.94671537928,5.185885822447
    ));
#554 = CARTESIAN_POINT('',(-5.674304657942,-17.97439542939,
    5.353977502032));
#555 = CARTESIAN_POINT('',(-5.484596727186,-18.03336573365,
    5.761432436285));
#556 = CARTESIAN_POINT('',(-5.390286993455,-18.061833471,6.002959322395)
  );
#557 = CARTESIAN_POINT('',(-5.311904605994,-18.08494052186,
    6.248012878539));
#558 = CARTESIAN_POINT('',(-5.249329232383,-18.10306074353,
    6.495770205277));
#559 = CARTESIAN_POINT('',(-5.202462629348,-18.11646973487,
    6.745500408992));
#560 = CARTESIAN_POINT('',(-5.171236082573,-18.12534974656,
    6.996535934421));
#561 = CARTESIAN_POINT('',(-5.155617390227,-18.12979126425,
    7.248244266279));
#562 = CARTESIAN_POINT('',(-5.155617390227,-18.12979126425,
    7.933093536053));
#563 = CARTESIAN_POINT('',(-5.201839225226,-18.11664684448,8.36541215791
    ));
#564 = CARTESIAN_POINT('',(-5.293992280698,-18.09044174292,
    8.794233722739));
#565 = CARTESIAN_POINT('',(-5.432433608262,-18.0503586372,9.216680904952
    ));
#566 = CARTESIAN_POINT('',(-5.61794582076,-17.99477294202,9.629214266469
    ));
#567 = CARTESIAN_POINT('',(-5.851532224885,-17.92116932463,
    10.027259514356));
#568 = CARTESIAN_POINT('',(-6.134111904138,-17.82602683124,
    10.404665709934));
#569 = CARTESIAN_POINT('',(-6.732035844037,-17.60765833027,11.0316672819
    ));
#570 = CARTESIAN_POINT('',(-7.036117385907,-17.49142562958,
    11.298435791417));
#571 = CARTESIAN_POINT('',(-7.376244905839,-17.3541487523,
    11.541862982535));
#572 = CARTESIAN_POINT('',(-7.74828541184,-17.19417095529,
    11.751980246589));
#573 = CARTESIAN_POINT('',(-8.146393812014,-17.01043515736,
    11.919970383867));
#574 = CARTESIAN_POINT('',(-8.563585516305,-16.80287275891,
    12.038160577121));
#575 = CARTESIAN_POINT('',(-8.99223782544,-16.57281763856,12.1));
#576 = CARTESIAN_POINT('',(-9.993742277235,-15.99459877372,12.1));
#577 = CARTESIAN_POINT('',(-10.52411151051,-15.6581191212,
    11.992584015624));
#578 = CARTESIAN_POINT('',(-11.00407772594,-15.32530183239,
    11.794887426046));
#579 = CARTESIAN_POINT('',(-11.42819097948,-15.00756932528,
    11.523127801043));
#580 = CARTESIAN_POINT('',(-11.79424264388,-14.71529104905,
    11.193523561686));
#581 = CARTESIAN_POINT('',(-12.10252823241,-14.45676357524,
    10.822470360725));
#582 = CARTESIAN_POINT('',(-12.35535375729,-14.23685817506,
    10.42662403364));
#583 = CARTESIAN_POINT('',(-12.70337049978,-13.92596760784,
    9.730120587591));
#584 = CARTESIAN_POINT('',(-12.82600822557,-13.81328451945,9.42676726398
    ));
#585 = CARTESIAN_POINT('',(-12.9263747923,-13.71902252043,9.115386774056
    ));
#586 = CARTESIAN_POINT('',(-13.00557072781,-13.64343277365,
    8.798036127231));
#587 = CARTESIAN_POINT('',(-13.06442653995,-13.5866530536,8.476413011874
    ));
#588 = CARTESIAN_POINT('',(-13.10349731497,-13.54875744213,
    8.151983178316));
#589 = CARTESIAN_POINT('',(-13.12305110504,-13.52979126425,
    7.826083398175));
#590 = CARTESIAN_POINT('',(-13.12305110504,-13.52979126425,7.24824426628
    ));
#591 = CARTESIAN_POINT('',(-13.11139529172,-13.54109668975,
    6.996535934421));
#592 = CARTESIAN_POINT('',(-13.08809170261,-13.56369966669,
    6.745500408992));
#593 = CARTESIAN_POINT('',(-13.05304587396,-13.59758283984,
    6.495770205277));
#594 = CARTESIAN_POINT('',(-13.00606561486,-13.6427145922,6.248012878539
    ));
#595 = CARTESIAN_POINT('',(-12.94686312809,-13.69904220552,
    6.002959322395));
#596 = CARTESIAN_POINT('',(-12.87505447748,-13.76648296208,
    5.761432436285));
#597 = CARTESIAN_POINT('',(-12.72913073055,-13.90128969728,
    5.353977502032));
#598 = CARTESIAN_POINT('',(-12.66134067924,-13.96334541018,
    5.185885822447));
#599 = CARTESIAN_POINT('',(-12.5865943617,-14.03104600734,5.020418244031
    ));
#600 = CARTESIAN_POINT('',(-12.50466858467,-14.10434977718,
    4.857937943023));
#601 = CARTESIAN_POINT('',(-12.41531264435,-14.18320089609,
    4.698863862352));
#602 = CARTESIAN_POINT('',(-12.31825212289,-14.26752270909,
    4.543680422803));
#603 = CARTESIAN_POINT('',(-12.21319268478,-14.35721101044,
    4.392947234194));
#604 = CARTESIAN_POINT('',(-11.96491323535,-14.56507920465,
    4.073996826654));
#605 = CARTESIAN_POINT('',(-11.81788555994,-14.68572775728,
    3.907450738939));
#606 = CARTESIAN_POINT('',(-11.65837298269,-14.81368758689,
    3.749157563541));
#607 = CARTESIAN_POINT('',(-11.48606032437,-14.94844750422,3.60068604415
    ));
#608 = CARTESIAN_POINT('',(-11.30070275932,-15.08936588721,
    3.463697655304));
#609 = CARTESIAN_POINT('',(-11.10215019675,-15.2356728924,3.339959869697
    ));
#610 = CARTESIAN_POINT('',(-10.89037837472,-15.38647951657,
    3.231361685471));
#611 = CARTESIAN_POINT('',(-10.52423031449,-15.63776410498,3.08247681798
    ));
#612 = CARTESIAN_POINT('',(-10.37783410369,-15.73607497693,
    3.031828183522));
#613 = CARTESIAN_POINT('',(-10.22683975221,-15.83516298319,
    2.988665032853));
#614 = CARTESIAN_POINT('',(-10.07180768002,-15.93446606147,
    2.953539203866));
#615 = CARTESIAN_POINT('',(-9.913353097705,-16.033437774,2.926875631042)
  );
#616 = CARTESIAN_POINT('',(-9.752140447954,-16.13155921958,
    2.908972389257));
#617 = CARTESIAN_POINT('',(-9.588876200457,-16.22834831213,2.9));
#618 = CARTESIAN_POINT('',(-9.4243,-16.32336642577,2.9));
#619 = CYLINDRICAL_SURFACE('',#620,18.8486);
#620 = AXIS2_PLACEMENT_3D('',#621,#622,#623);
#621 = CARTESIAN_POINT('',(0.,0.,0.));
#622 = DIRECTION('',(-0.,-0.,-1.));
#623 = DIRECTION('',(1.,0.,0.));
#624 = ADVANCED_FACE('',(#625,#636),#644,.T.);
#625 = FACE_BOUND('',#626,.T.);
#626 = EDGE_LOOP('',(#627));
#627 = ORIENTED_EDGE('',*,*,#628,.T.);
#628 = EDGE_CURVE('',#629,#629,#631,.T.);
#629 = VERTEX_POINT('',#630);
#630 = CARTESIAN_POINT('',(20.8486,-5.E-15,15.));
#631 = CIRCLE('',#632,20.8486);
#632 = AXIS2_PLACEMENT_3D('',#633,#634,#635);
#633 = CARTESIAN_POINT('',(0.,0.,15.));
#634 = DIRECTION('',(0.,0.,1.));
#635 = DIRECTION('',(1.,0.,0.));
#636 = FACE_BOUND('',#637,.T.);
#637 = EDGE_LOOP('',(#638,#639,#640,#641,#642,#643));
#638 = ORIENTED_EDGE('',*,*,#145,.T.);
#639 = ORIENTED_EDGE('',*,*,#290,.T.);
#640 = ORIENTED_EDGE('',*,*,#265,.T.);
#641 = ORIENTED_EDGE('',*,*,#230,.T.);
#642 = ORIENTED_EDGE('',*,*,#205,.T.);
#643 = ORIENTED_EDGE('',*,*,#170,.T.);
#644 = PLANE('',#645);
#645 = AXIS2_PLACEMENT_3D('',#646,#647,#648);
#646 = CARTESIAN_POINT('',(0.,0.,15.));
#647 = DIRECTION('',(0.,0.,1.));
#648 = DIRECTION('',(1.,0.,0.));
#649 = ADVANCED_FACE('',(#650),#669,.F.);
#650 = FACE_BOUND('',#651,.T.);
#651 = EDGE_LOOP('',(#652,#653,#661,#668));
#652 = ORIENTED_EDGE('',*,*,#186,.T.);
#653 = ORIENTED_EDGE('',*,*,#654,.T.);
#654 = EDGE_CURVE('',#187,#655,#657,.T.);
#655 = VERTEX_POINT('',#656);
#656 = CARTESIAN_POINT('',(-8.4093,14.565334856089,5.9));
#657 = LINE('',#658,#659);
#658 = CARTESIAN_POINT('',(3.377499074759E-16,1.95E-16,5.9));
#659 = VECTOR('',#660,1.);
#660 = DIRECTION('',(-0.5,0.866025403784,0.));
#661 = ORIENTED_EDGE('',*,*,#662,.F.);
#662 = EDGE_CURVE('',#655,#655,#663,.T.);
#663 = CIRCLE('',#664,1.6);
#664 = AXIS2_PLACEMENT_3D('',#665,#666,#667);
#665 = CARTESIAN_POINT('',(-8.4093,14.565334856089,7.5));
#666 = DIRECTION('',(0.5,-0.866025403784,0.));
#667 = DIRECTION('',(0.,0.,-1.));
#668 = ORIENTED_EDGE('',*,*,#654,.F.);
#669 = CYLINDRICAL_SURFACE('',#670,1.6);
#670 = AXIS2_PLACEMENT_3D('',#671,#672,#673);
#671 = CARTESIAN_POINT('',(0.,0.,7.5));
#672 = DIRECTION('',(0.5,-0.866025403784,0.));
#673 = DIRECTION('',(0.,0.,-1.));
#674 = ADVANCED_FACE('',(#675),#694,.F.);
#675 = FACE_BOUND('',#676,.T.);
#676 = EDGE_LOOP('',(#677,#678,#686,#693));
#677 = ORIENTED_EDGE('',*,*,#246,.T.);
#678 = ORIENTED_EDGE('',*,*,#679,.T.);
#679 = EDGE_CURVE('',#247,#680,#682,.T.);
#680 = VERTEX_POINT('',#681);
#681 = CARTESIAN_POINT('',(-8.4093,-14.56533485608,5.9));
#682 = LINE('',#683,#684);
#683 = CARTESIAN_POINT('',(-3.377499074759E-16,1.95E-16,5.9));
#684 = VECTOR('',#685,1.);
#685 = DIRECTION('',(-0.5,-0.866025403784,0.));
#686 = ORIENTED_EDGE('',*,*,#687,.F.);
#687 = EDGE_CURVE('',#680,#680,#688,.T.);
#688 = CIRCLE('',#689,1.6);
#689 = AXIS2_PLACEMENT_3D('',#690,#691,#692);
#690 = CARTESIAN_POINT('',(-8.4093,-14.56533485608,7.5));
#691 = DIRECTION('',(0.5,0.866025403784,0.));
#692 = DIRECTION('',(0.,0.,-1.));
#693 = ORIENTED_EDGE('',*,*,#679,.F.);
#694 = CYLINDRICAL_SURFACE('',#695,1.6);
#695 = AXIS2_PLACEMENT_3D('',#696,#697,#698);
#696 = CARTESIAN_POINT('',(0.,0.,7.5));
#697 = DIRECTION('',(0.5,0.866025403784,0.));
#698 = DIRECTION('',(0.,0.,-1.));
#699 = ADVANCED_FACE('',(#700),#719,.F.);
#700 = FACE_BOUND('',#701,.T.);
#701 = EDGE_LOOP('',(#702,#703,#711,#718));
#702 = ORIENTED_EDGE('',*,*,#299,.T.);
#703 = ORIENTED_EDGE('',*,*,#704,.T.);
#704 = EDGE_CURVE('',#300,#705,#707,.T.);
#705 = VERTEX_POINT('',#706);
#706 = CARTESIAN_POINT('',(16.8186,0.,5.9));
#707 = LINE('',#708,#709);
#708 = CARTESIAN_POINT('',(0.,-3.9E-16,5.9));
#709 = VECTOR('',#710,1.);
#710 = DIRECTION('',(1.,0.,0.));
#711 = ORIENTED_EDGE('',*,*,#712,.F.);
#712 = EDGE_CURVE('',#705,#705,#713,.T.);
#713 = CIRCLE('',#714,1.6);
#714 = AXIS2_PLACEMENT_3D('',#715,#716,#717);
#715 = CARTESIAN_POINT('',(16.8186,0.,7.5));
#716 = DIRECTION('',(-1.,-0.,-0.));
#717 = DIRECTION('',(0.,0.,-1.));
#718 = ORIENTED_EDGE('',*,*,#704,.F.);
#719 = CYLINDRICAL_SURFACE('',#720,1.6);
#720 = AXIS2_PLACEMENT_3D('',#721,#722,#723);
#721 = CARTESIAN_POINT('',(0.,0.,7.5));
#722 = DIRECTION('',(-1.,-0.,0.));
#723 = DIRECTION('',(0.,0.,-1.));
#724 = ADVANCED_FACE('',(#725),#745,.F.);
#725 = FACE_BOUND('',#726,.T.);
#726 = EDGE_LOOP('',(#727,#736,#742,#743,#744));
#727 = ORIENTED_EDGE('',*,*,#728,.F.);
#728 = EDGE_CURVE('',#729,#729,#731,.T.);
#729 = VERTEX_POINT('',#730);
#730 = CARTESIAN_POINT('',(16.8186,-1.E-15,2.9));
#731 = CIRCLE('',#732,4.6);
#732 = AXIS2_PLACEMENT_3D('',#733,#734,#735);
#733 = CARTESIAN_POINT('',(16.8186,0.,7.5));
#734 = DIRECTION('',(1.,-0.,0.));
#735 = DIRECTION('',(0.,0.,-1.));
#736 = ORIENTED_EDGE('',*,*,#737,.T.);
#737 = EDGE_CURVE('',#729,#317,#738,.T.);
#738 = LINE('',#739,#740);
#739 = CARTESIAN_POINT('',(16.8186,-1.13E-15,2.9));
#740 = VECTOR('',#741,1.);
#741 = DIRECTION('',(1.,0.,0.));
#742 = ORIENTED_EDGE('',*,*,#326,.T.);
#743 = ORIENTED_EDGE('',*,*,#389,.T.);
#744 = ORIENTED_EDGE('',*,*,#737,.F.);
#745 = CYLINDRICAL_SURFACE('',#746,4.6);
#746 = AXIS2_PLACEMENT_3D('',#747,#748,#749);
#747 = CARTESIAN_POINT('',(16.8186,0.,7.5));
#748 = DIRECTION('',(-1.,-0.,0.));
#749 = DIRECTION('',(0.,0.,-1.));
#750 = ADVANCED_FACE('',(#751,#762),#765,.F.);
#751 = FACE_BOUND('',#752,.F.);
#752 = EDGE_LOOP('',(#753));
#753 = ORIENTED_EDGE('',*,*,#754,.T.);
#754 = EDGE_CURVE('',#755,#755,#757,.T.);
#755 = VERTEX_POINT('',#756);
#756 = CARTESIAN_POINT('',(20.8486,-5.E-15,13.5));
#757 = CIRCLE('',#758,20.8486);
#758 = AXIS2_PLACEMENT_3D('',#759,#760,#761);
#759 = CARTESIAN_POINT('',(0.,0.,13.5));
#760 = DIRECTION('',(0.,0.,1.));
#761 = DIRECTION('',(1.,0.,0.));
#762 = FACE_BOUND('',#763,.F.);
#763 = EDGE_LOOP('',(#764));
#764 = ORIENTED_EDGE('',*,*,#381,.T.);
#765 = PLANE('',#766);
#766 = AXIS2_PLACEMENT_3D('',#767,#768,#769);
#767 = CARTESIAN_POINT('',(0.,0.,13.5));
#768 = DIRECTION('',(0.,0.,1.));
#769 = DIRECTION('',(1.,0.,0.));
#770 = ADVANCED_FACE('',(#771),#790,.F.);
#771 = FACE_BOUND('',#772,.T.);
#772 = EDGE_LOOP('',(#773,#782,#788,#789));
#773 = ORIENTED_EDGE('',*,*,#774,.F.);
#774 = EDGE_CURVE('',#775,#775,#777,.T.);
#775 = VERTEX_POINT('',#776);
#776 = CARTESIAN_POINT('',(-8.4093,14.565334856089,2.9));
#777 = CIRCLE('',#778,4.6);
#778 = AXIS2_PLACEMENT_3D('',#779,#780,#781);
#779 = CARTESIAN_POINT('',(-8.4093,14.565334856089,7.5));
#780 = DIRECTION('',(-0.5,0.866025403784,0.));
#781 = DIRECTION('',(0.,0.,-1.));
#782 = ORIENTED_EDGE('',*,*,#783,.T.);
#783 = EDGE_CURVE('',#775,#437,#784,.T.);
#784 = LINE('',#785,#786);
#785 = CARTESIAN_POINT('',(-8.4093,14.565334856089,2.9));
#786 = VECTOR('',#787,1.);
#787 = DIRECTION('',(-0.5,0.866025403784,0.));
#788 = ORIENTED_EDGE('',*,*,#436,.T.);
#789 = ORIENTED_EDGE('',*,*,#783,.F.);
#790 = CYLINDRICAL_SURFACE('',#791,4.6);
#791 = AXIS2_PLACEMENT_3D('',#792,#793,#794);
#792 = CARTESIAN_POINT('',(-8.4093,14.565334856089,7.5));
#793 = DIRECTION('',(0.5,-0.866025403784,0.));
#794 = DIRECTION('',(0.,0.,-1.));
#795 = ADVANCED_FACE('',(#796),#815,.F.);
#796 = FACE_BOUND('',#797,.T.);
#797 = EDGE_LOOP('',(#798,#807,#813,#814));
#798 = ORIENTED_EDGE('',*,*,#799,.F.);
#799 = EDGE_CURVE('',#800,#800,#802,.T.);
#800 = VERTEX_POINT('',#801);
#801 = CARTESIAN_POINT('',(-8.4093,-14.56533485608,2.9));
#802 = CIRCLE('',#803,4.6);
#803 = AXIS2_PLACEMENT_3D('',#804,#805,#806);
#804 = CARTESIAN_POINT('',(-8.4093,-14.56533485608,7.5));
#805 = DIRECTION('',(-0.5,-0.866025403784,-0.));
#806 = DIRECTION('',(0.,0.,-1.));
#807 = ORIENTED_EDGE('',*,*,#808,.T.);
#808 = EDGE_CURVE('',#800,#530,#809,.T.);
#809 = LINE('',#810,#811);
#810 = CARTESIAN_POINT('',(-8.4093,-14.56533485608,2.9));
#811 = VECTOR('',#812,1.);
#812 = DIRECTION('',(-0.5,-0.866025403784,0.));
#813 = ORIENTED_EDGE('',*,*,#529,.T.);
#814 = ORIENTED_EDGE('',*,*,#808,.F.);
#815 = CYLINDRICAL_SURFACE('',#816,4.6);
#816 = AXIS2_PLACEMENT_3D('',#817,#818,#819);
#817 = CARTESIAN_POINT('',(-8.4093,-14.56533485608,7.5));
#818 = DIRECTION('',(0.5,0.866025403784,0.));
#819 = DIRECTION('',(0.,0.,-1.));
#820 = ADVANCED_FACE('',(#821),#832,.T.);
#821 = FACE_BOUND('',#822,.F.);
#822 = EDGE_LOOP('',(#823,#829,#830,#831));
#823 = ORIENTED_EDGE('',*,*,#824,.T.);
#824 = EDGE_CURVE('',#755,#629,#825,.T.);
#825 = LINE('',#826,#827);
#826 = CARTESIAN_POINT('',(20.8486,-5.11E-15,13.5));
#827 = VECTOR('',#828,1.);
#828 = DIRECTION('',(0.,0.,1.));
#829 = ORIENTED_EDGE('',*,*,#628,.T.);
#830 = ORIENTED_EDGE('',*,*,#824,.F.);
#831 = ORIENTED_EDGE('',*,*,#754,.F.);
#832 = CYLINDRICAL_SURFACE('',#833,20.8486);
#833 = AXIS2_PLACEMENT_3D('',#834,#835,#836);
#834 = CARTESIAN_POINT('',(0.,0.,13.5));
#835 = DIRECTION('',(-0.,-0.,-1.));
#836 = DIRECTION('',(1.,0.,0.));
#837 = ADVANCED_FACE('',(#838,#841),#844,.T.);
#838 = FACE_BOUND('',#839,.T.);
#839 = EDGE_LOOP('',(#840));
#840 = ORIENTED_EDGE('',*,*,#774,.T.);
#841 = FACE_BOUND('',#842,.T.);
#842 = EDGE_LOOP('',(#843));
#843 = ORIENTED_EDGE('',*,*,#662,.T.);
#844 = PLANE('',#845);
#845 = AXIS2_PLACEMENT_3D('',#846,#847,#848);
#846 = CARTESIAN_POINT('',(-8.4093,14.565334856089,7.5));
#847 = DIRECTION('',(-0.5,0.866025403784,0.));
#848 = DIRECTION('',(0.,0.,-1.));
#849 = ADVANCED_FACE('',(#850,#853),#856,.T.);
#850 = FACE_BOUND('',#851,.T.);
#851 = EDGE_LOOP('',(#852));
#852 = ORIENTED_EDGE('',*,*,#799,.T.);
#853 = FACE_BOUND('',#854,.T.);
#854 = EDGE_LOOP('',(#855));
#855 = ORIENTED_EDGE('',*,*,#687,.T.);
#856 = PLANE('',#857);
#857 = AXIS2_PLACEMENT_3D('',#858,#859,#860);
#858 = CARTESIAN_POINT('',(-8.4093,-14.56533485608,7.5));
#859 = DIRECTION('',(-0.5,-0.866025403784,0.));
#860 = DIRECTION('',(0.,0.,-1.));
#861 = ADVANCED_FACE('',(#862,#865),#868,.T.);
#862 = FACE_BOUND('',#863,.T.);
#863 = EDGE_LOOP('',(#864));
#864 = ORIENTED_EDGE('',*,*,#728,.T.);
#865 = FACE_BOUND('',#866,.T.);
#866 = EDGE_LOOP('',(#867));
#867 = ORIENTED_EDGE('',*,*,#712,.T.);
#868 = PLANE('',#869);
#869 = AXIS2_PLACEMENT_3D('',#870,#871,#872);
#870 = CARTESIAN_POINT('',(16.8186,0.,7.5));
#871 = DIRECTION('',(1.,0.,0.));
#872 = DIRECTION('',(0.,0.,-1.));
#873 = ( GEOMETRIC_REPRESENTATION_CONTEXT(3) 
GLOBAL_UNCERTAINTY_ASSIGNED_CONTEXT((#877)) GLOBAL_UNIT_ASSIGNED_CONTEXT
((#874,#875,#876)) REPRESENTATION_CONTEXT('Context #1',
  '3D Context with UNIT and UNCERTAINTY') );
#874 = ( LENGTH_UNIT() NAMED_UNIT(*) SI_UNIT(.MILLI.,.METRE.) );
#875 = ( NAMED_UNIT(*) PLANE_ANGLE_UNIT() SI_UNIT($,.RADIAN.) );
#876 = ( NAMED_UNIT(*) SI_UNIT($,.STERADIAN.) SOLID_ANGLE_UNIT() );
#877 = UNCERTAINTY_MEASURE_WITH_UNIT(LENGTH_MEASURE(1.E-05),#874,
  'distance_accuracy_value','confusion accuracy');
#878 = PRODUCT_RELATED_PRODUCT_CATEGORY('part',$,(#7));
#879 = MECHANICAL_DESIGN_GEOMETRIC_PRESENTATION_REPRESENTATION('',(#880)
  ,#873);
#880 = STYLED_ITEM('color',(#881),#15);
#881 = PRESENTATION_STYLE_ASSIGNMENT((#882,#888));
#882 = SURFACE_STYLE_USAGE(.BOTH.,#883);
#883 = SURFACE_SIDE_STYLE('',(#884));
#884 = SURFACE_STYLE_FILL_AREA(#885);
#885 = FILL_AREA_STYLE('',(#886));
#886 = FILL_AREA_STYLE_COLOUR('',#887);
#887 = COLOUR_RGB('',0.678431390124,0.709803936702,0.741176476869);
#888 = CURVE_STYLE('',#889,POSITIVE_LENGTH_MEASURE(0.1),#890);
#889 = DRAUGHTING_PRE_DEFINED_CURVE_FONT('continuous');
#890 = COLOUR_RGB('',9.803921802644E-02,9.803921802644E-02,
  9.803921802644E-02);
ENDSEC;
END-ISO-10303-21;
